<svg width="27" height="27" viewBox="0 0 27 27" fill="none" xmlns="http://www.w3.org/2000/svg">
<path d="M13.5 25.5C15.0759 25.5 16.6363 25.1896 18.0922 24.5866C19.5481 23.9835 20.871 23.0996 21.9853 21.9853C23.0996 20.871 23.9835 19.5481 24.5866 18.0922C25.1896 16.6363 25.5 15.0759 25.5 13.5C25.5 11.9241 25.1896 10.3637 24.5866 8.9078C23.9835 7.45189 23.0996 6.12902 21.9853 5.01472C20.871 3.90042 19.5481 3.0165 18.0922 2.41345C16.6363 1.81039 15.0759 1.5 13.5 1.5C10.3174 1.5 7.26516 2.76428 5.01472 5.01472C2.76428 7.26516 1.5 10.3174 1.5 13.5C1.5 16.6826 2.76428 19.7348 5.01472 21.9853C7.26516 24.2357 10.3174 25.5 13.5 25.5Z" stroke="#FF7456" stroke-width="2" stroke-linecap="round" stroke-linejoin="round"/>
</svg>
