<svg width="48" height="48" viewBox="0 0 48 48" fill="none" xmlns="http://www.w3.org/2000/svg">
<path d="M7.66634 47.3335C5.80982 47.3335 4.02934 46.596 2.71659 45.2832C1.40384 43.9705 0.66634 42.19 0.666337 40.3335L0.66634 7.66682C0.666344 5.81031 1.40384 4.02983 2.71659 2.71708C4.02935 1.40432 5.80983 0.666825 7.66634 0.666821L40.333 0.666824C42.1895 0.666828 43.97 1.40432 45.2828 2.71708C46.5955 4.02983 47.333 5.81031 47.333 7.66683L47.333 40.3335C47.333 42.19 46.5955 43.9705 45.2828 45.2832C43.97 46.596 42.1895 47.3335 40.333 47.3335L7.66634 47.3335ZM22.5693 35.1768C23.0183 35.5251 23.5789 35.6976 24.1459 35.6619C24.713 35.6262 25.2476 35.3849 25.6493 34.9832L25.843 34.7638C26.1913 34.3149 26.3637 33.7543 26.3281 33.1872C26.2924 32.6202 26.0511 32.0856 25.6493 31.6838L20.3013 26.3335L33.333 26.3335L33.606 26.3172C34.1966 26.2469 34.738 25.9538 35.1197 25.4978C35.5014 25.0417 35.6946 24.4571 35.6597 23.8634C35.6249 23.2697 35.3647 22.7117 34.9322 22.3035C34.4998 21.8952 33.9277 21.6675 33.333 21.6668L20.3013 21.6668L25.6493 16.3165L25.843 16.0972C26.2056 15.6282 26.3762 15.0388 26.3199 14.4486C26.2637 13.8584 25.985 13.3118 25.5403 12.9197C25.0957 12.5277 24.5185 12.3195 23.9259 12.3376C23.3334 12.3557 22.7699 12.5987 22.35 13.0172L13.0167 22.3505L12.8463 22.5418L12.6737 22.7845L12.5523 23.0132L12.4497 23.2698L12.3797 23.5312L12.34 23.8252L12.333 24.0002L12.3493 24.2755L12.417 24.6208L12.4987 24.8658L12.6247 25.1295L12.7903 25.3885C12.8593 25.481 12.9349 25.5684 13.0167 25.6498L22.35 34.9832L22.5693 35.1768Z" fill="#2C3E50"/>
</svg>
