<svg width="48" height="48" viewBox="0 0 48 48" fill="none" xmlns="http://www.w3.org/2000/svg">
<path d="M40.3337 0.666504C42.1902 0.666504 43.9707 1.404 45.2834 2.71676C46.5962 4.02951 47.3337 5.80999 47.3337 7.6665V40.3332C47.3337 42.1897 46.5962 43.9702 45.2834 45.2829C43.9707 46.5957 42.1902 47.3332 40.3337 47.3332H7.66699C5.81048 47.3332 4.03 46.5957 2.71725 45.2829C1.40449 43.9702 0.666992 42.1897 0.666992 40.3332V7.6665C0.666992 5.80999 1.40449 4.02951 2.71725 2.71676C4.03 1.404 5.81048 0.666504 7.66699 0.666504H40.3337ZM25.4307 12.8232C24.9817 12.4749 24.4211 12.3024 23.8541 12.3381C23.287 12.3738 22.7524 12.6151 22.3507 13.0168L22.157 13.2362C21.8087 13.6851 21.6363 14.2457 21.6719 14.8128C21.7076 15.3798 21.9489 15.9144 22.3507 16.3162L27.6987 21.6665H14.667L14.394 21.6828C13.8034 21.7531 13.262 22.0462 12.8803 22.5022C12.4986 22.9583 12.3054 23.5429 12.3403 24.1366C12.3751 24.7303 12.6353 25.2883 13.0678 25.6965C13.5003 26.1048 14.0723 26.3325 14.667 26.3332H27.6987L22.3507 31.6835L22.157 31.9028C21.7944 32.3718 21.6238 32.9612 21.6801 33.5514C21.7363 34.1416 22.015 34.6882 22.4597 35.0803C22.9043 35.4723 23.4816 35.6805 24.0741 35.6624C24.6666 35.6443 25.2301 35.4013 25.65 34.9828L34.9833 25.6495L35.1537 25.4582L35.3263 25.2155L35.4477 24.9868L35.5503 24.7302L35.6203 24.4688L35.66 24.1748L35.667 23.9998L35.6507 23.7245L35.583 23.3792L35.5013 23.1342L35.3753 22.8705L35.2097 22.6115C35.1407 22.519 35.0651 22.4316 34.9833 22.3502L25.65 13.0168L25.4307 12.8232Z" fill="#2C3E50"/>
</svg>
