<svg width="33" height="33" viewBox="0 0 33 33" fill="none" xmlns="http://www.w3.org/2000/svg">
<g clip-path="url(#clip0_1_284)">
<path d="M16.5 28.5C18.0759 28.5 19.6363 28.1896 21.0922 27.5866C22.5481 26.9835 23.871 26.0996 24.9853 24.9853C26.0996 23.871 26.9835 22.5481 27.5866 21.0922C28.1896 19.6363 28.5 18.0759 28.5 16.5C28.5 14.9241 28.1896 13.3637 27.5866 11.9078C26.9835 10.4519 26.0996 9.12902 24.9853 8.01472C23.871 6.90042 22.5481 6.0165 21.0922 5.41345C19.6363 4.81039 18.0759 4.5 16.5 4.5C13.3174 4.5 10.2652 5.76428 8.01472 8.01472C5.76428 10.2652 4.5 13.3174 4.5 16.5C4.5 19.6826 5.76428 22.7348 8.01472 24.9853C10.2652 27.2357 13.3174 28.5 16.5 28.5Z" stroke="#FF7456" stroke-width="2" stroke-linecap="round" stroke-linejoin="round"/>
<path d="M11.1667 16.5L16.5 21.8333" stroke="#FF7456" stroke-width="2" stroke-linecap="round" stroke-linejoin="round"/>
<path d="M11.1667 16.5H21.8333" stroke="#FF7456" stroke-width="2" stroke-linecap="round" stroke-linejoin="round"/>
<path d="M16.5 11.1665L11.1667 16.4998" stroke="#FF7456" stroke-width="2" stroke-linecap="round" stroke-linejoin="round"/>
</g>
<defs>
<clipPath id="clip0_1_284">
<rect width="32" height="32" fill="white" transform="translate(0.5 0.5)"/>
</clipPath>
</defs>
</svg>
