<svg width="24" height="24" viewBox="0 0 24 24" fill="none" xmlns="http://www.w3.org/2000/svg">
<g id="Icons">
<path id="Vector (Stroke)" fill-rule="evenodd" clip-rule="evenodd" d="M12 21.6C10.7393 21.6 9.49096 21.3517 8.32624 20.8692C7.16151 20.3868 6.10322 19.6797 5.21177 18.7882C4.32033 17.8968 3.6132 16.8385 3.13076 15.6738C2.64831 14.509 2.4 13.2607 2.4 12C2.4 10.7393 2.64831 9.49096 3.13076 8.32624C3.6132 7.16151 4.32033 6.10322 5.21177 5.21178C6.10322 4.32033 7.16151 3.6132 8.32624 3.13076C9.49096 2.64831 10.7393 2.4 12 2.4C14.5461 2.4 16.9879 3.41143 18.7882 5.21178C20.5886 7.01213 21.6 9.45392 21.6 12C21.6 14.5461 20.5886 16.9879 18.7882 18.7882C16.9879 20.5886 14.5461 21.6 12 21.6ZM7.4078 23.0866C8.86371 23.6896 10.4241 24 12 24C15.1826 24 18.2348 22.7357 20.4853 20.4853C22.7357 18.2348 24 15.1826 24 12C24 8.8174 22.7357 5.76516 20.4853 3.51472C18.2348 1.26428 15.1826 0 12 0C10.4241 0 8.86371 0.310389 7.4078 0.913445C5.95189 1.5165 4.62902 2.40042 3.51472 3.51472C2.40042 4.62902 1.5165 5.95189 0.913446 7.4078C0.310389 8.86371 0 10.4241 0 12C0 13.5759 0.310389 15.1363 0.913446 16.5922C1.5165 18.0481 2.40042 19.371 3.51472 20.4853C4.62902 21.5996 5.95189 22.4835 7.4078 23.0866ZM7.55147 16.4485C8.0201 16.9172 8.7799 16.9172 9.24853 16.4485L12 13.6971L14.7515 16.4485C15.2201 16.9172 15.9799 16.9172 16.4485 16.4485C16.9172 15.9799 16.9172 15.2201 16.4485 14.7515L13.6971 12L16.4485 9.24853C16.9172 8.7799 16.9172 8.0201 16.4485 7.55147C15.9799 7.08284 15.2201 7.08284 14.7515 7.55147L12 10.3029L9.24853 7.55147C8.7799 7.08284 8.0201 7.08284 7.55147 7.55147C7.08284 8.0201 7.08284 8.7799 7.55147 9.24853L10.3029 12L7.55147 14.7515C7.08284 15.2201 7.08284 15.9799 7.55147 16.4485Z" fill="#113455"/>
</g>
</svg>
